<svg xmlns="http://www.w3.org/2000/svg" xmlns:xlink="http://www.w3.org/1999/xlink" width="1000" zoomAndPan="magnify" viewBox="0 0 750 225" height="300" preserveAspectRatio="xMidYMid meet" version="1.0"><defs><g/><clipPath id="id1"><path d="M 436.132812 8.554688 L 624.988281 8.554688 L 624.988281 201.265625 L 436.132812 201.265625 Z M 436.132812 8.554688 " clip-rule="nonzero"/></clipPath></defs><g fill="#000000" fill-opacity="1"><g transform="translate(99.854533, 181.046868)"><g><path d="M 86.820312 18.035156 C 88.710938 18.246094 90.175781 17.617188 91.855469 17.40625 C 92.695312 16.988281 93.742188 16.777344 94.160156 15.9375 C 96.050781 12.164062 97.726562 8.386719 97.9375 4.195312 C 98.148438 0.210938 98.355469 -3.984375 99.613281 -8.179688 C 102.132812 -16.777344 102.96875 -25.796875 104.226562 -34.601562 C 104.859375 -34.601562 105.277344 -34.601562 105.90625 -34.8125 C 111.359375 -36.492188 117.019531 -38.167969 121.84375 -41.734375 C 125.828125 -44.667969 130.023438 -47.394531 132.332031 -52.21875 C 132.75 -53.476562 132.960938 -54.734375 134.007812 -55.992188 C 137.152344 -60.1875 137.363281 -64.800781 135.265625 -69.207031 C 133.167969 -70.253906 131.910156 -65.222656 131.699219 -64.800781 L 130.652344 -61.445312 C 128.976562 -57.253906 126.457031 -53.898438 123.941406 -50.332031 C 119.539062 -44.039062 112.40625 -40.054688 104.859375 -40.894531 C 103.808594 -40.894531 103.179688 -41.734375 103.179688 -42.78125 C 103.390625 -43.203125 103.390625 -43.832031 103.597656 -44.25 C 103.179688 -45.089844 103.179688 -46.558594 103.179688 -47.816406 C 103.179688 -48.863281 103.597656 -49.914062 103.390625 -50.960938 C 104.019531 -55.785156 103.808594 -60.398438 104.226562 -65.011719 C 104.648438 -72.769531 105.277344 -88.917969 104.648438 -96.46875 C 104.019531 -102.132812 106.953125 -107.582031 103.179688 -113.035156 C 102.132812 -114.714844 101.292969 -116.183594 99.40625 -116.601562 C 94.792969 -118.070312 90.386719 -119.957031 85.773438 -120.796875 C 83.886719 -121.214844 81.789062 -122.683594 79.902344 -121.425781 C 79.691406 -121.214844 79.691406 -121.214844 79.480469 -121.425781 C 78.851562 -121.003906 78.222656 -121.214844 77.59375 -121.214844 C 74.660156 -121.003906 74.449219 -120.585938 75.078125 -117.859375 C 75.289062 -117.019531 75.078125 -116.390625 75.078125 -115.554688 C 74.238281 -110.9375 74.867188 -106.324219 74.660156 -101.710938 C 73.398438 -87.03125 73.609375 -63.964844 75.496094 -49.492188 C 75.707031 -47.605469 74.660156 -45.507812 74.867188 -43.621094 C 74.867188 -41.523438 72.769531 -40.683594 70.882812 -40.894531 C 67.949219 -41.3125 62.496094 -41.941406 59.140625 -41.941406 C 56.203125 -41.941406 55.363281 -42.570312 55.363281 -45.089844 C 55.363281 -48.863281 54.316406 -52.636719 53.898438 -56.414062 C 53.6875 -58.089844 53.058594 -59.976562 53.6875 -61.65625 C 54.945312 -65.640625 55.15625 -69.625 54.945312 -73.609375 C 54.945312 -78.433594 54.945312 -83.257812 54.527344 -88.082031 C 54.105469 -92.695312 55.363281 -97.308594 55.15625 -101.921875 C 54.945312 -106.746094 54.527344 -111.777344 54.734375 -116.8125 C 54.734375 -117.230469 54.734375 -117.859375 54.527344 -118.277344 C 53.898438 -123.101562 53.269531 -128.34375 51.800781 -133.167969 C 51.589844 -134.007812 51.171875 -134.636719 50.960938 -135.476562 C 50.960938 -136.316406 51.800781 -138.621094 51.378906 -139.25 C 51.378906 -139.671875 51.589844 -140.300781 51.171875 -140.507812 C 48.863281 -141.765625 47.394531 -143.65625 44.878906 -144.285156 L 44.667969 -144.492188 C 44.25 -144.703125 42.152344 -145.332031 41.523438 -145.332031 C 41.3125 -145.542969 41.105469 -145.542969 41.105469 -145.75 L 40.054688 -146.800781 L 38.378906 -146.800781 C 36.28125 -147.429688 33.972656 -148.058594 32.085938 -148.476562 C 29.359375 -148.898438 27.054688 -148.898438 24.957031 -146.800781 C 24.535156 -146.171875 23.699219 -145.75 22.859375 -145.332031 C 21.179688 -144.703125 20.761719 -143.445312 20.761719 -142.1875 C 20.761719 -133.378906 20.550781 -124.359375 20.761719 -115.554688 C 20.761719 -107.375 21.808594 -99.40625 22.859375 -91.226562 C 23.488281 -86.402344 24.328125 -81.578125 24.117188 -76.964844 C 24.117188 -70.253906 24.328125 -63.964844 25.796875 -57.460938 C 27.261719 -50.75 28.101562 -48.023438 28.941406 -41.105469 C 29.148438 -40.265625 28.941406 -39.214844 28.519531 -38.378906 C 25.375 -36.28125 20.34375 -32.085938 17.824219 -29.359375 C 15.519531 -26.84375 12.164062 -21.179688 11.535156 -16.777344 C 10.066406 -8.179688 12.164062 -2.515625 15.097656 1.257812 C 17.617188 5.03125 20.972656 7.757812 25.796875 8.179688 C 28.519531 8.386719 31.246094 8.179688 33.765625 7.757812 C 36.910156 7.339844 39.847656 6.082031 41.523438 2.9375 C 41.941406 2.515625 42.363281 1.886719 42.992188 1.675781 C 43.832031 1.046875 44.667969 0.417969 44.878906 -0.417969 C 45.507812 -1.886719 46.765625 -3.144531 47.816406 -3.984375 C 49.074219 -5.453125 49.914062 -6.921875 49.703125 -8.597656 C 49.703125 -10.277344 50.121094 -11.953125 50.542969 -13.210938 C 51.800781 -16.359375 53.269531 -21.179688 53.269531 -26.214844 C 53.269531 -36.070312 54.527344 -36.699219 57.671875 -36.070312 C 61.238281 -35.441406 66.898438 -35.023438 70.464844 -35.023438 C 71.722656 -35.230469 72.769531 -35.023438 73.820312 -34.8125 C 74.867188 -34.394531 75.289062 -33.972656 75.496094 -32.925781 C 76.125 -29.988281 76.964844 -27.054688 76.753906 -23.90625 C 76.546875 -22.441406 76.546875 -20.972656 76.964844 -19.921875 C 78.433594 -13.839844 78.433594 -7.550781 80.320312 -1.46875 C 81.578125 2.9375 81.371094 7.757812 83.886719 11.742188 C 84.304688 12.164062 84.097656 12.792969 84.304688 13.210938 L 84.933594 16.359375 C 85.144531 17.40625 85.773438 17.824219 86.820312 18.035156 Z M 19.292969 -3.984375 C 16.777344 -6.082031 16.777344 -9.226562 16.988281 -11.953125 C 17.195312 -15.308594 16.566406 -19.714844 18.246094 -22.441406 C 19.292969 -24.328125 20.34375 -25.164062 22.648438 -27.054688 C 25.164062 -29.148438 29.570312 -33.34375 30.828125 -29.988281 C 31.039062 -27.472656 32.085938 -27.054688 31.875 -24.535156 C 32.503906 -19.292969 32.925781 -12.164062 31.457031 -7.128906 C 29.988281 -2.9375 23.277344 -0.628906 19.292969 -3.984375 Z M 19.292969 -3.984375 "/></g></g></g><g fill="#000000" fill-opacity="1"><g transform="translate(226.9416, 181.046868)"><g><path d="M 28.519531 -20.34375 C 30.828125 -20.34375 32.503906 -21.390625 33.554688 -23.277344 C 35.023438 -25.796875 37.328125 -27.890625 38.796875 -30.410156 C 41.941406 -34.601562 44.460938 -38.796875 44.039062 -44.25 C 44.039062 -45.296875 44.039062 -46.347656 44.460938 -47.394531 C 45.089844 -50.332031 45.089844 -51.589844 45.507812 -54.316406 C 45.71875 -56.832031 45.71875 -56.832031 48.234375 -56.832031 C 53.476562 -56.832031 56.414062 -58.71875 58.929688 -59.347656 C 61.238281 -59.976562 63.332031 -60.816406 65.011719 -62.285156 C 65.640625 -62.703125 66.898438 -63.964844 66.898438 -66.269531 C 66.898438 -67.738281 66.480469 -68.367188 64.382812 -66.898438 C 60.816406 -64.382812 59.558594 -63.964844 57.460938 -63.332031 C 55.15625 -62.703125 52.007812 -62.496094 48.023438 -62.496094 C 45.71875 -62.496094 45.507812 -64.382812 45.089844 -66.6875 C 44.460938 -69.207031 43.621094 -71.511719 42.992188 -73.820312 C 41.941406 -76.125 39.214844 -77.175781 37.539062 -78.851562 C 37.539062 -79.0625 37.328125 -79.273438 37.328125 -79.273438 C 32.925781 -83.046875 28.101562 -82.417969 23.277344 -81.371094 C 21.808594 -80.949219 19.921875 -80.320312 18.664062 -79.273438 C 18.453125 -78.851562 17.617188 -78.644531 16.988281 -78.851562 C 14.46875 -80.109375 11.535156 -79.480469 9.019531 -80.949219 C 7.550781 -81.789062 6.292969 -82 4.824219 -82.628906 C 3.566406 -83.257812 2.9375 -82.835938 2.308594 -82 C 1.675781 -81.160156 1.257812 -80.53125 1.257812 -79.480469 C 1.46875 -78.222656 1.046875 -76.964844 0.628906 -75.496094 C 0 -72.980469 -0.628906 -70.464844 -1.46875 -67.949219 C -3.773438 -58.929688 -4.402344 -49.703125 -1.46875 -40.683594 C 0.417969 -34.8125 2.9375 -29.78125 8.386719 -26.214844 C 14.46875 -22.019531 21.390625 -20.550781 28.519531 -20.34375 Z M 34.183594 -63.964844 C 31.039062 -65.011719 28.3125 -67.949219 27.890625 -70.464844 C 27.683594 -72.351562 27.683594 -73.609375 29.359375 -74.660156 C 31.667969 -75.496094 33.34375 -75.078125 35.023438 -74.449219 C 39.007812 -72.980469 40.894531 -69.207031 41.105469 -66.058594 C 41.3125 -62.285156 41.105469 -61.867188 34.183594 -63.964844 Z M 28.3125 -28.941406 C 25.585938 -26.425781 22.441406 -27.054688 21.179688 -30.199219 C 20.761719 -31.039062 20.761719 -31.875 20.34375 -32.925781 C 19.921875 -36.070312 20.132812 -39.425781 21.601562 -42.570312 C 22.859375 -45.925781 23.070312 -49.074219 23.699219 -52.429688 C 24.117188 -55.363281 25.375 -58.089844 25.375 -61.027344 C 25.375 -62.285156 26.214844 -62.703125 27.683594 -61.867188 C 30.199219 -60.398438 32.925781 -58.929688 36.070312 -58.511719 L 36.910156 -58.300781 C 41.3125 -57.253906 41.523438 -57.253906 40.683594 -53.476562 C 39.214844 -46.347656 36.699219 -39.214844 32.296875 -32.714844 C 31.246094 -31.246094 29.78125 -29.988281 28.3125 -28.941406 Z M 28.3125 -28.941406 "/></g></g></g><g fill="#000000" fill-opacity="1"><g transform="translate(288.387983, 181.046868)"><g><path d="M 40.894531 -19.503906 C 45.089844 -22.230469 48.652344 -25.164062 51.171875 -29.359375 C 54.734375 -32.714844 54.734375 -33.554688 58.300781 -40.476562 C 61.65625 -47.605469 64.59375 -55.574219 66.269531 -60.609375 C 66.898438 -62.496094 67.527344 -62.703125 65.429688 -64.800781 C 64.382812 -65.851562 63.542969 -65.429688 62.914062 -63.542969 C 62.703125 -62.914062 62.074219 -62.074219 61.65625 -61.238281 C 60.1875 -58.089844 59.140625 -55.785156 57.671875 -53.058594 C 57.042969 -50.75 52.636719 -40.894531 52.21875 -39.636719 C 51.171875 -36.910156 46.976562 -33.554688 45.089844 -30.828125 C 41.941406 -27.261719 37.75 -23.699219 33.554688 -28.3125 C 32.085938 -29.148438 31.667969 -30.410156 31.039062 -31.875 C 30.199219 -33.34375 29.359375 -34.601562 29.359375 -36.070312 C 28.3125 -42.152344 27.261719 -38.585938 27.890625 -44.667969 C 28.101562 -47.394531 28.519531 -50.332031 27.472656 -53.6875 C 27.054688 -56.625 28.730469 -58.511719 31.667969 -65.011719 C 33.554688 -69.414062 34.8125 -74.03125 35.859375 -78.644531 C 37.328125 -82 38.167969 -85.773438 38.585938 -89.96875 C 40.476562 -96.679688 41.734375 -103.179688 42.363281 -109.679688 C 42.992188 -113.457031 43.621094 -116.8125 43.410156 -120.585938 C 43.621094 -124.78125 44.667969 -129.183594 43.410156 -133.378906 C 42.992188 -134.847656 42.152344 -136.945312 41.3125 -138.621094 C 40.894531 -141.765625 38.167969 -144.285156 34.601562 -144.703125 C 31.246094 -144.492188 28.519531 -144.492188 25.164062 -142.605469 C 24.535156 -141.765625 23.070312 -141.136719 22.230469 -141.136719 C 19.292969 -140.929688 16.988281 -140.089844 14.261719 -139.671875 C 13.003906 -139.042969 11.953125 -137.992188 12.375 -136.523438 C 12.582031 -134.847656 12.164062 -133.378906 11.113281 -131.910156 C 9.855469 -128.136719 9.226562 -124.988281 7.96875 -121.632812 C 6.710938 -117.230469 5.453125 -113.035156 4.613281 -108.84375 L 3.773438 -102.96875 C 3.773438 -102.550781 3.773438 -101.921875 3.355469 -101.503906 C 2.9375 -100.453125 3.566406 -99.613281 3.566406 -99.195312 C 3.144531 -97.308594 2.515625 -95.628906 2.726562 -93.324219 L 2.515625 -92.902344 C 1.46875 -83.886719 1.046875 -85.773438 1.675781 -82.628906 C 1.046875 -80.742188 0.628906 -72.351562 1.257812 -70.042969 C 0.839844 -68.996094 0.839844 -68.15625 0.839844 -66.898438 L 1.046875 -61.027344 C 1.257812 -54.734375 3.144531 -41.523438 4.195312 -39.636719 C 6.082031 -35.230469 7.550781 -29.988281 8.179688 -29.359375 C 11.535156 -24.328125 11.742188 -24.535156 16.988281 -20.972656 C 23.699219 -16.566406 33.765625 -16.777344 40.894531 -19.503906 Z M 27.683594 -73.820312 C 26.84375 -73.191406 27.054688 -78.222656 27.054688 -78.851562 C 26.632812 -79.273438 27.683594 -84.933594 27.683594 -87.449219 L 27.054688 -101.292969 C 26.84375 -111.148438 28.941406 -120.796875 30.828125 -130.863281 L 31.246094 -130.863281 C 30.828125 -132.960938 33.972656 -134.636719 35.441406 -132.75 C 41.3125 -124.78125 38.378906 -115.554688 36.28125 -106.746094 C 35.023438 -102.132812 34.8125 -96.886719 34.601562 -92.273438 C 33.972656 -86.613281 32.503906 -84.933594 30.828125 -79.480469 C 30.410156 -76.753906 29.570312 -75.707031 27.683594 -73.820312 Z M 27.683594 -73.820312 "/></g></g></g><g fill="#000000" fill-opacity="1"><g transform="translate(347.108062, 181.046868)"><g><path d="M 23.90625 38.378906 C 26.214844 40.054688 29.148438 40.683594 31.667969 37.957031 C 33.765625 35.230469 35.441406 32.296875 37.121094 29.359375 C 39.847656 23.90625 41.941406 18.453125 43.621094 12.582031 C 45.71875 4.195312 47.394531 -3.984375 48.652344 -12.375 C 49.074219 -14.890625 49.914062 -16.988281 50.121094 -19.292969 C 50.75 -23.90625 49.28125 -20.132812 50.542969 -24.746094 C 51.171875 -27.472656 52.007812 -30.199219 53.6875 -32.503906 C 58.929688 -39.425781 63.964844 -46.558594 71.09375 -51.800781 C 72.5625 -53.058594 73.820312 -54.527344 75.289062 -55.785156 C 75.496094 -56.414062 75.917969 -57.042969 76.335938 -57.460938 C 78.015625 -58.929688 83.257812 -63.332031 83.886719 -65.429688 C 83.886719 -67.109375 82.835938 -67.527344 81.371094 -67.320312 C 80.320312 -66.6875 74.238281 -61.445312 72.980469 -61.027344 C 70.042969 -58.71875 67.320312 -56.203125 65.011719 -53.058594 C 61.867188 -49.074219 57.671875 -45.925781 53.898438 -41.523438 C 53.476562 -46.976562 55.363281 -62.285156 55.992188 -67.109375 C 56.203125 -69.625 56.832031 -72.140625 56.203125 -74.660156 C 55.574219 -77.386719 53.898438 -78.222656 51.378906 -77.59375 L 45.71875 -75.707031 C 44.25 -75.289062 42.78125 -74.660156 42.152344 -73.191406 C 40.683594 -70.253906 39.007812 -67.527344 37.121094 -65.011719 C 36.28125 -63.753906 35.652344 -62.703125 36.910156 -61.445312 C 36.28125 -60.816406 35.859375 -60.1875 35.652344 -59.558594 C 34.183594 -57.042969 32.925781 -54.734375 31.246094 -52.429688 C 30.617188 -52.007812 30.199219 -51.378906 29.78125 -50.960938 C 29.148438 -50.332031 28.730469 -50.542969 28.519531 -51.171875 C 28.519531 -51.589844 28.519531 -52.21875 28.3125 -52.636719 C 27.890625 -59.976562 26.003906 -67.109375 23.277344 -74.03125 C 21.808594 -77.804688 19.292969 -80.109375 16.777344 -81.789062 C 14.890625 -83.046875 14.050781 -83.675781 11.113281 -84.304688 C 9.019531 -84.726562 7.128906 -85.773438 4.824219 -85.5625 C 1.886719 -85.355469 -0.628906 -84.933594 -2.726562 -82.628906 C -3.144531 -82.207031 -3.773438 -81.789062 -4.195312 -81.578125 C -1.46875 -78.851562 -0.628906 -75.289062 0 -71.722656 C 0.839844 -67.527344 1.46875 -63.125 2.726562 -58.929688 C 4.824219 -51.171875 7.757812 -43.832031 11.113281 -36.492188 C 11.953125 -34.183594 13.632812 -32.085938 15.9375 -31.246094 C 19.714844 -29.78125 18.246094 -28.519531 22.441406 -28.3125 C 24.535156 -28.3125 27.054688 -28.519531 28.3125 -30.617188 C 30.828125 -35.023438 33.34375 -39.214844 36.492188 -42.992188 C 36.699219 -43.203125 36.699219 -43.410156 36.699219 -43.410156 C 37.328125 -45.71875 38.585938 -47.1875 40.265625 -49.28125 C 41.105469 -50.332031 42.570312 -52.636719 42.363281 -49.492188 C 42.363281 -48.023438 41.734375 -46.558594 41.734375 -45.089844 C 41.105469 -37.75 40.054688 -30.828125 36.699219 -24.117188 C 32.296875 -15.519531 26.632812 -7.550781 22.441406 1.257812 C 20.761719 4.824219 18.875 8.179688 18.246094 12.164062 C 17.824219 13.632812 17.195312 15.308594 16.988281 16.777344 C 16.359375 19.714844 15.9375 22.441406 15.9375 25.375 C 16.148438 28.941406 18.246094 31.457031 19.921875 34.183594 C 20.972656 35.652344 22.230469 37.328125 23.90625 38.378906 Z M 25.375 26.214844 C 24.328125 27.054688 23.699219 26.84375 23.699219 25.585938 C 23.488281 22.859375 22.859375 20.132812 23.699219 17.40625 C 24.957031 13.210938 25.796875 9.019531 26.84375 4.824219 C 27.054688 3.355469 27.890625 2.515625 28.519531 1.257812 C 31.039062 -4.195312 34.601562 -8.808594 38.167969 -14.050781 C 38.796875 -12.792969 38.585938 -11.742188 38.378906 -10.90625 C 36.492188 -4.824219 35.652344 1.46875 33.765625 7.550781 C 32.925781 10.90625 31.457031 14.261719 29.988281 17.617188 C 29.148438 19.292969 28.519531 21.179688 27.683594 23.070312 C 27.261719 24.328125 26.425781 25.375 25.375 26.214844 Z M 25.375 26.214844 "/></g></g></g><path fill="#5c913b" d="M 418.070312 97.316406 C 424.121094 97.316406 453.609375 105.449219 457.390625 111.308594 L 449.640625 110.558594 C 449.640625 110.558594 426.015625 102.992188 419.964844 102.992188 C 413.910156 102.992188 418.070312 97.316406 418.070312 97.316406 Z M 418.070312 97.316406 " fill-opacity="1" fill-rule="nonzero"/><path fill="#31999d" d="M 479.808594 11.925781 C 485.859375 17.980469 497.957031 54.285156 497.957031 72.4375 C 497.957031 90.589844 485.859375 108.742188 510.054688 120.84375 C 534.25 132.945312 540.304688 114.792969 540.304688 90.589844 C 540.304688 66.386719 534.25 42.183594 528.203125 30.082031 C 522.152344 17.980469 516.101562 30.082031 516.101562 30.082031 C 516.101562 30.082031 510.054688 5.875 504.003906 5.875 C 497.957031 5.875 497.957031 17.980469 497.957031 17.980469 C 497.957031 17.980469 485.859375 5.875 479.808594 5.875 C 473.757812 5.875 479.808594 11.925781 479.808594 11.925781 Z M 479.808594 11.925781 " fill-opacity="1" fill-rule="nonzero"/><g clip-path="url(#id1)"><path fill="#1e595b" d="M 473.757812 90.589844 C 491.90625 90.589844 497.957031 114.792969 510.054688 114.792969 C 522.152344 114.792969 516.101562 96.640625 528.203125 96.640625 C 540.300781 96.640625 588.691406 66.386719 588.691406 30.082031 C 588.691406 -6.226562 606.839844 11.925781 606.839844 24.03125 C 612.886719 24.03125 618.9375 33.625 618.9375 42.183594 C 618.9375 48.234375 618.9375 54.285156 612.886719 60.335938 C 618.9375 60.335938 624.988281 72.4375 618.9375 78.488281 C 624.988281 96.640625 612.886719 114.792969 600.789062 120.84375 C 600.789062 126.894531 588.691406 138.996094 576.59375 132.945312 C 576.59375 132.945312 570.542969 151.097656 558.445312 145.046875 C 558.445312 145.046875 576.910156 155.238281 582.644531 157.148438 C 600.789062 163.199219 624.988281 163.199219 624.988281 163.199219 C 624.988281 163.199219 624.988281 169.25 612.886719 175.300781 C 612.886719 175.300781 618.9375 181.351562 612.886719 187.402344 C 606.839844 193.453125 600.789062 193.453125 600.789062 193.453125 C 600.789062 193.453125 606.839844 205.554688 588.691406 199.503906 C 570.542969 193.453125 552.398438 175.300781 552.398438 175.300781 C 552.398438 175.300781 522.152344 181.351562 497.957031 169.25 C 473.757812 157.148438 461.660156 132.945312 461.660156 120.84375 C 461.660156 108.742188 443.515625 114.792969 437.464844 114.792969 C 431.414062 114.792969 449.5625 102.691406 455.613281 102.691406 C 455.613281 102.691406 455.613281 90.589844 473.757812 90.589844 Z M 473.757812 90.589844 " fill-opacity="1" fill-rule="nonzero"/></g><path fill="#5c913b" d="M 455.308594 108.855469 C 455.308594 108.855469 488.203125 124.738281 503.328125 149.132812 C 514.820312 167.671875 520.15625 201.507812 520.15625 201.507812 C 520.15625 201.507812 520.414062 204.921875 514.667969 187.707031 C 508.621094 169.554688 501.257812 149.65625 488.585938 138.160156 C 468.359375 119.820312 459.851562 116.984375 451.914062 112.445312 C 449.90625 111.300781 453.230469 108.289062 455.308594 108.855469 Z M 455.308594 108.855469 " fill-opacity="1" fill-rule="nonzero"/><path fill="#5c913b" d="M 511.25 172.519531 C 511.25 172.519531 523.578125 173.140625 530.046875 185.460938 C 536.507812 197.78125 529.726562 215.195312 529.726562 215.195312 C 529.726562 215.195312 513.089844 207.523438 508.785156 197.363281 C 504.476562 187.199219 511.25 172.519531 511.25 172.519531 Z M 498.347656 143.605469 C 498.347656 143.605469 506.054688 152.300781 519.871094 153.921875 C 533.6875 155.550781 544.800781 145.578125 544.800781 145.578125 C 544.800781 145.578125 531.832031 133.660156 520.796875 133.277344 C 509.769531 132.882812 498.347656 143.605469 498.347656 143.605469 Z M 473.867188 124.558594 C 473.867188 124.558594 461.679688 126.550781 456.628906 139.515625 C 451.578125 152.484375 459.199219 163.78125 459.199219 163.78125 C 459.199219 163.78125 474.527344 158.648438 477.679688 148.066406 C 480.832031 137.496094 473.867188 124.558594 473.867188 124.558594 Z M 473.867188 124.558594 " fill-opacity="1" fill-rule="nonzero"/></svg>